<svg width="32" height="33" viewBox="0 0 32 33" fill="none" xmlns="http://www.w3.org/2000/svg">
<rect y="0.744141" width="32" height="32" rx="4" fill="black"/>
<g clip-path="url(#clip0)">
<path d="M13.3353 27.0002C15.1753 27.0002 16.6686 25.5068 16.6686 23.6667V20.3333H13.3353C11.4953 20.3333 10.002 21.8267 10.002 23.6667C10.002 25.5068 11.4953 27.0002 13.3353 27.0002Z" fill="#0ACF83"/>
<path d="M10.002 16.9999C10.002 15.1599 11.4953 13.6666 13.3353 13.6666H16.6686V20.3332H13.3353C11.4953 20.3332 10.002 18.8399 10.002 16.9999Z" fill="#A259FF"/>
<path d="M10.002 10.3334C10.002 8.49339 11.4953 7.00006 13.3353 7.00006H16.6686V13.6667H13.3353C11.4953 13.6667 10.002 12.1734 10.002 10.3334Z" fill="#F24E1E"/>
<path d="M16.668 7.00006H20.0013C21.8413 7.00006 23.3347 8.49339 23.3347 10.3334C23.3347 12.1734 21.8413 13.6667 20.0013 13.6667H16.668V7.00006Z" fill="#FF7262"/>
<path d="M23.3347 16.9999C23.3347 18.8399 21.8413 20.3332 20.0013 20.3332C18.1613 20.3332 16.668 18.8399 16.668 16.9999C16.668 15.1599 18.1613 13.6666 20.0013 13.6666C21.8413 13.6666 23.3347 15.1599 23.3347 16.9999Z" fill="#1ABCFE"/>
</g>
<defs>
<clipPath id="clip0">
<rect width="13.336" height="20" fill="white" transform="translate(10 7)"/>
</clipPath>
</defs>
</svg>
