<svg width="147" height="95" viewBox="0 0 147 95" fill="none" xmlns="http://www.w3.org/2000/svg">
<path d="M77.7676 93.2142C78.0773 93.7506 79.0577 93.0825 79.4525 92.7523C79.4968 92.8289 79.57 92.7867 79.57 92.7867C80.2439 92.6019 81.0626 91.8227 81.2362 91.1094C82.4635 85.2916 85.2327 80.1164 89.2817 76.1438C89.5591 75.7792 90.3625 74.8045 89.8621 74.2759C89.2886 73.7896 88.4257 74.4921 88.0308 74.8223C85.1222 77.7278 82.7138 81.1619 80.9811 84.9213C79.8206 79.869 78.7044 74.8934 77.9251 69.8254C77.3603 64.7167 76.4608 63.5 76.9991 43.9994C77.0783 41.1334 77.5634 38.1814 77.5002 34.9999C77.4497 32.5 76.5 33 75.9994 33C74.4012 37.4991 74.7333 51.6648 74.5 56.5C74.0214 66.9947 76.3403 78.4042 78.7498 88.662C75.3002 83.1942 71.6311 77.8531 67.6693 72.6811C67.1979 72.0336 66.1597 72.9396 65.838 73.2275C65.4142 73.6765 64.8304 74.5245 65.2576 75.0953C69.6908 80.9148 73.8756 86.98 77.7676 93.2142Z" fill="black"/>
<path d="M0.272 3.184C0.272 2.20267 0.656 1.42933 1.424 0.864C2.192 0.288 3.11467 0 4.192 0C5.38667 0 6.368 0.330667 7.136 0.992001C7.904 1.65333 8.29867 2.43733 8.32 3.344C8.32 3.45067 8.26667 3.504 8.16 3.504H6.464C6.368 3.504 6.31467 3.45067 6.304 3.344C6.22933 2.864 5.99467 2.496 5.6 2.24C5.216 1.984 4.736 1.856 4.16 1.856C3.616 1.856 3.168 1.96267 2.816 2.176C2.464 2.38933 2.288 2.69333 2.288 3.088C2.288 3.51467 2.512 3.856 2.96 4.112C3.41867 4.368 4.08 4.61867 4.944 4.864C5.47733 5.01333 5.94133 5.168 6.336 5.328C6.74133 5.488 7.13067 5.69067 7.504 5.936C7.87733 6.18133 8.16 6.47467 8.352 6.816C8.55467 7.15733 8.656 7.54133 8.656 7.968C8.656 9.088 8.26667 9.96267 7.488 10.592C6.70933 11.2107 5.65867 11.52 4.336 11.52C3.09867 11.52 2.06933 11.1573 1.248 10.432C0.426667 9.696 0.0106666 8.8 0 7.744C0 7.63733 0.0533333 7.584 0.16 7.584H1.84C1.936 7.584 1.98933 7.63733 2 7.744C2.05333 8.37333 2.29333 8.85333 2.72 9.184C3.15733 9.504 3.728 9.664 4.432 9.664C5.104 9.664 5.63733 9.53067 6.032 9.264C6.43733 8.98667 6.64 8.624 6.64 8.176C6.64 7.472 5.792 6.90667 4.096 6.48C2.80533 6.14933 1.84533 5.73867 1.216 5.248C0.586667 4.74667 0.272 4.05867 0.272 3.184Z" fill="black"/>
<path d="M12.3692 6.4V9.504H17.6493C17.7559 9.504 17.8092 9.55733 17.8092 9.664V11.2C17.8092 11.3067 17.7559 11.36 17.6493 11.36H10.5132C10.4066 11.36 10.3532 11.3067 10.3532 11.2V0.32C10.3532 0.213333 10.4066 0.16 10.5132 0.16H17.4093C17.5159 0.16 17.5693 0.213333 17.5693 0.32V1.856C17.5693 1.96267 17.5159 2.016 17.4093 2.016H12.3692V4.544H16.9293C17.0359 4.544 17.0893 4.59733 17.0893 4.704V6.24C17.0893 6.34667 17.0359 6.4 16.9293 6.4H12.3692Z" fill="black"/>
<path d="M21.6736 6.4V9.504H26.9536C27.0603 9.504 27.1136 9.55733 27.1136 9.664V11.2C27.1136 11.3067 27.0603 11.36 26.9536 11.36H19.8176C19.711 11.36 19.6576 11.3067 19.6576 11.2V0.32C19.6576 0.213333 19.711 0.16 19.8176 0.16H26.7136C26.8203 0.16 26.8736 0.213333 26.8736 0.32V1.856C26.8736 1.96267 26.8203 2.016 26.7136 2.016H21.6736V4.544H26.2336C26.3403 4.544 26.3936 4.59733 26.3936 4.704V6.24C26.3936 6.34667 26.3403 6.4 26.2336 6.4H21.6736Z" fill="black"/>
<path d="M35.7355 6.64V11.2C35.7355 11.3067 35.6822 11.36 35.5755 11.36H33.8795C33.7728 11.36 33.7195 11.3067 33.7195 11.2V0.32C33.7195 0.213333 33.7728 0.16 33.8795 0.16H40.9835C41.0902 0.16 41.1435 0.213333 41.1435 0.32V1.856C41.1435 1.96267 41.0902 2.016 40.9835 2.016H35.7355V4.784H40.4715C40.5782 4.784 40.6315 4.83733 40.6315 4.944V6.48C40.6315 6.58667 40.5782 6.64 40.4715 6.64H35.7355Z" fill="black"/>
<path d="M49.908 11.168C49.2573 11.4027 48.58 11.52 47.876 11.52C47.172 11.52 46.4947 11.4027 45.844 11.168C45.1933 10.9227 44.6013 10.5707 44.068 10.112C43.5453 9.65333 43.124 9.05067 42.804 8.304C42.4947 7.54667 42.34 6.69867 42.34 5.76C42.34 4.82133 42.4947 3.97867 42.804 3.232C43.124 2.47467 43.5453 1.86667 44.068 1.408C44.6013 0.949334 45.1933 0.602667 45.844 0.368C46.4947 0.122667 47.172 0 47.876 0C48.58 0 49.2573 0.122667 49.908 0.368C50.5587 0.602667 51.1453 0.949334 51.668 1.408C52.2013 1.86667 52.6227 2.47467 52.932 3.232C53.252 3.97867 53.412 4.82133 53.412 5.76C53.412 6.69867 53.252 7.54667 52.932 8.304C52.6227 9.05067 52.2013 9.65333 51.668 10.112C51.1453 10.5707 50.5587 10.9227 49.908 11.168ZM45.428 8.656C46.1 9.328 46.916 9.664 47.876 9.664C48.836 9.664 49.652 9.328 50.324 8.656C50.996 7.97333 51.332 7.008 51.332 5.76C51.332 4.512 50.996 3.552 50.324 2.88C49.652 2.19733 48.836 1.856 47.876 1.856C46.916 1.856 46.1 2.19733 45.428 2.88C44.756 3.552 44.42 4.512 44.42 5.76C44.42 7.008 44.756 7.97333 45.428 8.656Z" fill="black"/>
<path d="M55.297 11.2V0.32C55.297 0.213333 55.3503 0.16 55.457 0.16H59.825C60.8597 0.16 61.6863 0.432 62.305 0.976C62.9343 1.50933 63.249 2.256 63.249 3.216C63.249 3.888 63.0517 4.48533 62.657 5.008C62.2623 5.52 61.7717 5.89867 61.185 6.144L63.569 11.2C63.5797 11.2213 63.585 11.2427 63.585 11.264C63.585 11.328 63.537 11.36 63.441 11.36H61.601C61.5157 11.36 61.441 11.3067 61.377 11.2L58.977 6.272H57.313V11.2C57.313 11.3067 57.2597 11.36 57.153 11.36H55.457C55.3503 11.36 55.297 11.3067 55.297 11.2ZM57.313 2.016V4.416H59.905C60.3103 4.416 60.6303 4.30933 60.865 4.096C61.1103 3.88267 61.233 3.58933 61.233 3.216C61.233 2.84267 61.1103 2.54933 60.865 2.336C60.6303 2.12267 60.3103 2.016 59.905 2.016H57.313Z" fill="black"/>
<path d="M77.5549 0.32L74.1149 7.424V11.2C74.1149 11.3067 74.0615 11.36 73.9549 11.36H72.2589C72.1522 11.36 72.0989 11.3067 72.0989 11.2V7.424L68.6589 0.32C68.6482 0.298667 68.6429 0.277334 68.6429 0.256001C68.6429 0.192 68.6802 0.16 68.7549 0.16H70.6269C70.7335 0.16 70.8029 0.202667 70.8349 0.288L73.1069 5.328L75.3789 0.288C75.4109 0.202667 75.4802 0.16 75.5869 0.16H77.4589C77.5335 0.16 77.5709 0.192 77.5709 0.256001C77.5709 0.277334 77.5655 0.298667 77.5549 0.32Z" fill="black"/>
<path d="M85.3286 11.168C84.678 11.4027 84.0006 11.52 83.2966 11.52C82.5926 11.52 81.9153 11.4027 81.2646 11.168C80.614 10.9227 80.022 10.5707 79.4886 10.112C78.966 9.65333 78.5446 9.05067 78.2246 8.304C77.9153 7.54667 77.7606 6.69867 77.7606 5.76C77.7606 4.82133 77.9153 3.97867 78.2246 3.232C78.5446 2.47467 78.966 1.86667 79.4886 1.408C80.022 0.949334 80.614 0.602667 81.2646 0.368C81.9153 0.122667 82.5926 0 83.2966 0C84.0006 0 84.678 0.122667 85.3286 0.368C85.9793 0.602667 86.566 0.949334 87.0886 1.408C87.622 1.86667 88.0433 2.47467 88.3526 3.232C88.6726 3.97867 88.8326 4.82133 88.8326 5.76C88.8326 6.69867 88.6726 7.54667 88.3526 8.304C88.0433 9.05067 87.622 9.65333 87.0886 10.112C86.566 10.5707 85.9793 10.9227 85.3286 11.168ZM80.8486 8.656C81.5206 9.328 82.3366 9.664 83.2966 9.664C84.2566 9.664 85.0726 9.328 85.7446 8.656C86.4166 7.97333 86.7526 7.008 86.7526 5.76C86.7526 4.512 86.4166 3.552 85.7446 2.88C85.0726 2.19733 84.2566 1.856 83.2966 1.856C82.3366 1.856 81.5206 2.19733 80.8486 2.88C80.1766 3.552 79.8406 4.512 79.8406 5.76C79.8406 7.008 80.1766 7.97333 80.8486 8.656Z" fill="black"/>
<path d="M90.5085 7.04V0.32C90.5085 0.213333 90.5618 0.16 90.6685 0.16H92.3645C92.4712 0.16 92.5245 0.213333 92.5245 0.32V7.024C92.5245 7.90933 92.7218 8.57067 93.1165 9.008C93.5112 9.44533 94.0605 9.664 94.7645 9.664C95.4685 9.664 96.0178 9.44533 96.4125 9.008C96.8072 8.57067 97.0045 7.90933 97.0045 7.024V0.32C97.0045 0.213333 97.0578 0.16 97.1645 0.16H98.8605C98.9672 0.16 99.0205 0.213333 99.0205 0.32V7.04C99.0205 8.42667 98.6312 9.52 97.8525 10.32C97.0845 11.12 96.0552 11.52 94.7645 11.52C93.4738 11.52 92.4392 11.12 91.6605 10.32C90.8925 9.52 90.5085 8.42667 90.5085 7.04Z" fill="black"/>
<path d="M101.053 11.2V0.32C101.053 0.213333 101.107 0.16 101.213 0.16H105.581C106.616 0.16 107.443 0.432 108.061 0.976C108.691 1.50933 109.005 2.256 109.005 3.216C109.005 3.888 108.808 4.48533 108.413 5.008C108.019 5.52 107.528 5.89867 106.941 6.144L109.325 11.2C109.336 11.2213 109.341 11.2427 109.341 11.264C109.341 11.328 109.293 11.36 109.197 11.36H107.357C107.272 11.36 107.197 11.3067 107.133 11.2L104.733 6.272H103.069V11.2C103.069 11.3067 103.016 11.36 102.909 11.36H101.213C101.107 11.36 101.053 11.3067 101.053 11.2ZM103.069 2.016V4.416H105.661C106.067 4.416 106.387 4.30933 106.621 4.096C106.867 3.88267 106.989 3.58933 106.989 3.216C106.989 2.84267 106.867 2.54933 106.621 2.336C106.387 2.12267 106.067 2.016 105.661 2.016H103.069Z" fill="black"/>
<path d="M110.674 3.184C110.674 2.20267 111.058 1.42933 111.826 0.864C112.594 0.288 113.517 0 114.594 0C115.789 0 116.77 0.330667 117.538 0.992001C118.306 1.65333 118.701 2.43733 118.723 3.344C118.723 3.45067 118.669 3.504 118.562 3.504H116.867C116.771 3.504 116.717 3.45067 116.706 3.344C116.632 2.864 116.397 2.496 116.003 2.24C115.619 1.984 115.138 1.856 114.562 1.856C114.018 1.856 113.57 1.96267 113.218 2.176C112.866 2.38933 112.69 2.69333 112.69 3.088C112.69 3.51467 112.915 3.856 113.363 4.112C113.821 4.368 114.482 4.61867 115.346 4.864C115.88 5.01333 116.344 5.168 116.738 5.328C117.144 5.488 117.533 5.69067 117.906 5.936C118.28 6.18133 118.563 6.47467 118.755 6.816C118.957 7.15733 119.059 7.54133 119.059 7.968C119.059 9.088 118.669 9.96267 117.891 10.592C117.112 11.2107 116.061 11.52 114.738 11.52C113.501 11.52 112.472 11.1573 111.65 10.432C110.829 9.696 110.413 8.8 110.402 7.744C110.402 7.63733 110.456 7.584 110.562 7.584H112.242C112.338 7.584 112.392 7.63733 112.402 7.744C112.456 8.37333 112.696 8.85333 113.122 9.184C113.56 9.504 114.131 9.664 114.835 9.664C115.507 9.664 116.04 9.53067 116.434 9.264C116.84 8.98667 117.042 8.624 117.042 8.176C117.042 7.472 116.194 6.90667 114.498 6.48C113.208 6.14933 112.248 5.73867 111.618 5.248C110.989 4.74667 110.674 4.05867 110.674 3.184Z" fill="black"/>
<path d="M122.772 6.4V9.504H128.052C128.158 9.504 128.212 9.55733 128.212 9.664V11.2C128.212 11.3067 128.158 11.36 128.052 11.36H120.916C120.809 11.36 120.756 11.3067 120.756 11.2V0.32C120.756 0.213333 120.809 0.16 120.916 0.16H127.812C127.918 0.16 127.972 0.213333 127.972 0.32V1.856C127.972 1.96267 127.918 2.016 127.812 2.016H122.772V4.544H127.332C127.438 4.544 127.492 4.59733 127.492 4.704V6.24C127.492 6.34667 127.438 6.4 127.332 6.4H122.772Z" fill="black"/>
<path d="M130.06 11.2V0.32C130.06 0.213333 130.113 0.16 130.22 0.16H131.916C132.023 0.16 132.076 0.213333 132.076 0.32V9.504H137.532C137.639 9.504 137.692 9.55733 137.692 9.664V11.2C137.692 11.3067 137.639 11.36 137.532 11.36H130.22C130.113 11.36 130.06 11.3067 130.06 11.2Z" fill="black"/>
<path d="M141.443 6.64V11.2C141.443 11.3067 141.39 11.36 141.283 11.36H139.587C139.48 11.36 139.427 11.3067 139.427 11.2V0.32C139.427 0.213333 139.48 0.16 139.587 0.16H146.691C146.798 0.16 146.851 0.213333 146.851 0.32V1.856C146.851 1.96267 146.798 2.016 146.691 2.016H141.443V4.784H146.179C146.286 4.784 146.339 4.83733 146.339 4.944V6.48C146.339 6.58667 146.286 6.64 146.179 6.64H141.443Z" fill="black"/>
</svg>
