<svg width="151" height="81" viewBox="0 0 151 81" fill="none" xmlns="http://www.w3.org/2000/svg">
<path d="M148.772 51.1589C149.102 51.5537 149.77 52.534 149.234 52.8438C143 56.7358 136.934 60.9206 131.115 65.3538C130.544 65.781 129.696 65.1972 129.247 64.7734C128.959 64.4517 128.053 63.4135 128.701 62.9421C133.873 58.9803 139.214 55.3112 144.682 51.8616C134.424 54.2711 123.97 56.6959 113.476 56.2173C108.641 55.9839 103.782 55.1788 99.2826 53.5805C94.2656 51.7933 89.8725 48.9628 86.1533 45.3529C81.6973 40.9976 78.264 35.759 75.6817 30.2242C75.4281 29.7851 75.3544 28.9495 76.1021 29.0057C76.8499 29.0619 77.6635 29.7631 77.9671 30.466C80.1535 34.9608 82.8075 39.3808 86.2545 43.0503C89.4558 46.4712 93.2122 49.0838 97.677 50.7995C106.564 54.1577 116.449 54.1104 125.845 52.6863C130.913 51.907 135.889 50.7907 140.941 49.6302C137.182 47.8975 133.747 45.4892 130.842 42.5805C130.512 42.1857 129.809 41.3228 130.295 40.7492C130.824 40.2489 131.799 41.0522 132.163 41.3297C136.136 45.3787 141.311 48.1479 147.129 49.3752C147.842 49.5488 148.622 50.3675 148.806 51.0414C148.806 51.0414 148.849 51.1146 148.772 51.1589Z" fill="black"/>
</svg>
