<svg width="240" height="240" viewBox="0 0 240 240" fill="none" xmlns="http://www.w3.org/2000/svg">
<path fill-rule="evenodd" clip-rule="evenodd" d="M92.37 61.9467L92.0433 61.3633C91.622 60.6579 91.0277 60.0717 90.3167 59.66L74.66 50.63C73.951 50.2187 73.1463 50.0015 72.3267 50H71.65C70.8304 50.0015 70.0256 50.2187 69.3167 50.63L53.66 59.6833C52.9529 60.0923 52.3656 60.6796 51.9567 61.3867L51.63 61.97C51.2187 62.679 51.0015 63.4837 51 64.3033V82.3867C51.0015 83.2063 51.2187 84.011 51.63 84.72L51.9567 85.3033C52.3762 86.0022 52.9611 86.5872 53.66 87.0067L69.34 96.0367C70.0454 96.4565 70.8525 96.6744 71.6733 96.6667H72.3267C73.1463 96.6652 73.951 96.4479 74.66 96.0367L90.3167 86.9833C91.0308 86.5836 91.6203 85.9941 92.02 85.28L92.37 84.6967C92.7763 83.9856 92.9932 83.1822 93 82.3633V64.28C92.9985 63.4604 92.7813 62.6556 92.37 61.9467ZM71.65 54.6666H72.3267L86 62.5533L72 70.6266L58 62.5533L71.65 54.6666ZM74.3334 90.8334L87.9834 82.9467L88.3334 82.3634V66.59L74.3334 74.6867V90.8334Z" fill="white"/>
<path fill-rule="evenodd" clip-rule="evenodd" d="M91 76.5H179C184.799 76.5 189.5 81.201 189.5 87V109.5C189.5 115.299 184.799 120 179 120H64C56.5442 120 50.5 126.044 50.5 133.5V156C50.5 163.456 56.5442 169.5 64 169.5H151V166.5H64C58.201 166.5 53.5 161.799 53.5 156V133.5C53.5 127.701 58.201 123 64 123H179C186.456 123 192.5 116.956 192.5 109.5V87C192.5 79.5442 186.456 73.5 179 73.5H91V76.5Z" fill="white"/>
<mask id="path-4-inside-1" fill="white">
<path fill-rule="evenodd" clip-rule="evenodd" d="M168.5 190C180.926 190 191 179.926 191 167.5C191 155.074 180.926 145 168.5 145C156.074 145 146 155.074 146 167.5C146 179.926 156.074 190 168.5 190ZM172.525 171.428L174.609 164.888C175.544 162.372 177.341 160.072 180.791 160.072L175.903 171.859C175.041 174.663 172.453 176.531 169.578 176.531C169.578 176.531 168.141 166.325 168.141 166.109L165.984 171.716C165.05 174.159 163.181 176.531 159.731 176.531L157 160C159.731 160.072 161.959 162.156 162.247 164.888C162.247 164.888 162.606 170.925 162.606 171.428L165.122 164.816C166.056 162.372 167.781 160 171.087 160C171.087 160 172.525 170.925 172.525 171.428Z"/>
</mask>
<path fill-rule="evenodd" clip-rule="evenodd" d="M139 75C139 78.3137 136.314 81 133 81C129.686 81 127 78.3137 127 75C127 71.6863 129.686 69 133 69C136.314 69 139 71.6863 139 75Z" fill="white"/>
<path fill-rule="evenodd" clip-rule="evenodd" d="M197 98C197 101.314 194.314 104 191 104C187.686 104 185 101.314 185 98C185 94.6863 187.686 92 191 92C194.314 92 197 94.6863 197 98Z" fill="white"/>
<path fill-rule="evenodd" clip-rule="evenodd" d="M154 121C154 124.314 151.314 127 148 127C144.686 127 142 124.314 142 121C142 117.686 144.686 115 148 115C151.314 115 154 117.686 154 121Z" fill="white"/>
<path fill-rule="evenodd" clip-rule="evenodd" d="M99 121C99 124.314 96.3137 127 93 127C89.6863 127 87 124.314 87 121C87 117.686 89.6863 115 93 115C96.3137 115 99 117.686 99 121Z" fill="white"/>
<path fill-rule="evenodd" clip-rule="evenodd" d="M58 145C58 148.314 55.3137 151 52 151C48.6863 151 46 148.314 46 145C46 141.686 48.6863 139 52 139C55.3137 139 58 141.686 58 145Z" fill="white"/>
<path fill-rule="evenodd" clip-rule="evenodd" d="M126 168C126 171.314 123.314 174 120 174C116.686 174 114 171.314 114 168C114 164.686 116.686 162 120 162C123.314 162 126 164.686 126 168Z" fill="white"/>
</svg>
