<svg width="32" height="33" viewBox="0 0 32 33" fill="none" xmlns="http://www.w3.org/2000/svg">
<rect y="0.744141" width="32" height="32" rx="4" fill="#4353FF"/>
<path d="M21.8036 13.8435L20.0514 18.987C20.0514 18.5913 18.8429 10 18.8429 10C16.0634 10 14.6133 11.8652 13.8278 13.787L11.713 18.987C11.713 18.5913 11.4109 13.8435 11.4109 13.8435C11.1692 11.6957 9.29607 10.0565 7 10L9.29607 23C12.1964 23 13.7674 21.1348 14.5529 19.213L16.3656 14.8043C16.3656 14.9739 17.574 23 17.574 23C19.9909 23 22.1662 21.5304 22.8912 19.3261L27 10.0565C24.0997 10.0565 22.5891 11.8652 21.8036 13.8435Z" fill="white"/>
</svg>
