<svg width="93" height="115" viewBox="0 0 93 115" fill="none" xmlns="http://www.w3.org/2000/svg">
<path fill-rule="evenodd" clip-rule="evenodd" d="M39.4877 12.5602L40.9277 16.7602C40.9757 16.9202 41.0717 17.0002 41.2157 17.0002H43.8317C44.0077 17.0002 44.0957 16.9202 44.0957 16.7602C44.0957 16.7122 44.0877 16.6642 44.0717 16.6162L38.1677 0.440195C38.1197 0.280195 38.0397 0.200195 37.9277 0.200195H35.0957C34.9837 0.200195 34.9037 0.280195 34.8557 0.440195L28.9517 16.6162C28.9357 16.6642 28.9277 16.7122 28.9277 16.7602C28.9277 16.9202 29.0157 17.0002 29.1917 17.0002H31.8077C31.9517 17.0002 32.0477 16.9202 32.0957 16.7602L33.5357 12.5602H39.4877ZM34.4957 9.7762L36.5117 3.9202L38.5277 9.7762H34.4957ZM45.9722 0.440195V16.7602C45.9722 16.9202 46.0522 17.0002 46.2122 17.0002H51.3002C53.5722 17.0002 55.4522 16.2802 56.9402 14.8402C58.4442 13.4002 59.1962 11.3202 59.1962 8.6002C59.1962 5.8802 58.4442 3.8002 56.9402 2.3602C55.4522 0.920196 53.5722 0.200195 51.3002 0.200195H46.2122C46.0522 0.200195 45.9722 0.280195 45.9722 0.440195ZM48.9962 2.9842H51.1562C52.6442 2.9842 53.8362 3.4562 54.7322 4.4002C55.6282 5.3442 56.0762 6.7442 56.0762 8.6002C56.0762 10.4562 55.6282 11.8562 54.7322 12.8002C53.8362 13.7442 52.6442 14.2162 51.1562 14.2162H48.9962V2.9842ZM71.7002 16.7602L70.2602 12.5602H64.3082L62.8682 16.7602C62.8202 16.9202 62.7242 17.0002 62.5802 17.0002H59.9642C59.7882 17.0002 59.7002 16.9202 59.7002 16.7602C59.7002 16.7122 59.7082 16.6642 59.7242 16.6162L65.6282 0.440195C65.6762 0.280195 65.7562 0.200195 65.8682 0.200195H68.7002C68.8122 0.200195 68.8922 0.280195 68.9402 0.440195L74.8442 16.6162C74.8602 16.6642 74.8682 16.7122 74.8682 16.7602C74.8682 16.9202 74.7802 17.0002 74.6042 17.0002H71.9882C71.8442 17.0002 71.7482 16.9202 71.7002 16.7602ZM67.2842 3.9202L65.2682 9.7762H69.3002L67.2842 3.9202ZM92.2967 17.0002C92.4567 17.0002 92.5367 16.9202 92.5367 16.7602V0.440195C92.5367 0.280195 92.4567 0.200195 92.2967 0.200195H89.2967C89.1047 0.200195 88.9767 0.280195 88.9127 0.440195L84.6407 10.3042L80.3687 0.440195C80.3047 0.280195 80.1767 0.200195 79.9847 0.200195H76.9847C76.8247 0.200195 76.7447 0.280195 76.7447 0.440195V16.7602C76.7447 16.9202 76.8247 17.0002 76.9847 17.0002H79.5287C79.6887 17.0002 79.7687 16.9202 79.7687 16.7602V5.6962L83.3207 13.9282C83.4007 14.1042 83.5127 14.1922 83.6567 14.1922H85.6247C85.7687 14.1922 85.8807 14.1042 85.9607 13.9282L89.5127 5.6962V16.7602C89.5127 16.9202 89.5927 17.0002 89.7527 17.0002H92.2967ZM0.693409 112.892C-0.04013 112.892 0.0646612 111.491 0.169452 110.891C0.0646612 110.891 0.0646608 110.791 0.0646608 110.791C-0.144922 109.99 0.169453 108.69 0.7982 108.089C6.03776 103.386 9.70545 97.4819 11.3821 90.9774C11.3937 90.9497 11.4063 90.9192 11.4198 90.8864C11.6507 90.3268 12.1621 89.0872 12.954 89.2762C13.7923 89.5764 13.5827 90.8773 13.4779 91.4777C12.2204 96.181 10.1246 100.684 7.29526 104.687C13.1636 102.886 18.9271 101.084 24.5858 98.8828C35.0649 94.78 45.2297 88.976 52.3555 80.2701C55.9184 75.867 58.2238 70.9637 59.4813 65.56C60.8436 59.756 60.9484 53.6518 60.5292 47.7478C60.4244 46.8472 60.8436 45.6463 61.5771 45.146C62.3106 44.6456 62.7298 45.5463 62.7298 46.1467C63.3586 53.3516 62.9394 60.7567 60.9484 67.8616C59.2717 73.7656 56.4423 79.2694 52.3555 84.0727C48.6878 88.3756 44.1818 92.0782 39.3614 95.1803C28.8822 101.885 16.7265 105.587 4.78027 109.19C12.43 109.49 20.0798 110.091 27.7295 111.091C28.6727 111.191 28.3583 112.792 28.2535 113.293C28.0439 113.993 27.52 115.094 26.6816 114.994C18.0888 113.893 9.39108 113.193 0.693409 112.892Z" fill="black"/>
</svg>
