<svg width="40" height="40" viewBox="0 0 40 40" fill="none" xmlns="http://www.w3.org/2000/svg">
<path d="M24.3178 6.33349C25.1451 6.32769 25.8975 6.8117 26.2351 7.56682L26.5852 8.33349C27.4715 10.3036 29.0492 11.8808 31.02 12.7668L31.7535 13.0835C32.7853 13.5607 33.2674 14.7582 32.8539 15.8168L32.5871 16.5335C31.8117 18.5332 31.8117 20.7504 32.5871 22.7502L32.8706 23.5668C33.2804 24.6024 32.803 25.777 31.7869 26.2335L31.02 26.5835C29.0492 27.4695 27.4715 29.0467 26.5852 31.0168L26.2684 31.7502C25.9266 32.5115 25.1692 33.001 24.3345 33.0002C24.0611 32.9957 23.7906 32.945 23.5342 32.8502L22.8173 32.5835C21.8139 32.1896 20.7443 31.9916 19.6663 32.0002C18.6116 31.9923 17.5649 32.1846 16.582 32.5668L15.765 32.8502C15.5273 32.9492 15.2723 33.0002 15.0148 33.0002C14.1875 33.006 13.435 32.5219 13.0975 31.7668L12.7474 31.0002C11.8611 29.03 10.2834 27.4528 8.31262 26.5668L7.57905 26.3335C6.54726 25.8563 6.06518 24.6588 6.47869 23.6002L6.74544 22.8835C7.52087 20.8838 7.52087 18.6665 6.74544 16.6668L6.46202 15.8502C6.05222 14.8146 6.52957 13.64 7.5457 13.1835L8.31262 12.8335C10.3044 11.9305 11.8905 10.3212 12.7641 8.31682L13.0808 7.58349C13.4226 6.82214 14.18 6.33261 15.0148 6.33349C15.2881 6.3379 15.5587 6.38862 15.815 6.48349L16.5319 6.75015C17.5301 7.14199 18.5939 7.33996 19.6663 7.33349C20.721 7.34136 21.7676 7.14907 22.7506 6.76682L23.5676 6.48349C23.8053 6.38447 24.0603 6.33349 24.3178 6.33349V6.33349Z" fill="white"/>
<path fill-rule="evenodd" clip-rule="evenodd" d="M24.3182 3.00014C23.6509 3.00049 22.9894 3.12482 22.3675 3.36681L21.6006 3.65014C20.9822 3.8819 20.3271 4.00046 19.6667 4.00014C19.0062 4.00046 18.3511 3.8819 17.7327 3.65014L16.9658 3.36681C14.2683 2.32567 11.2276 3.57817 10.0469 6.21681L9.66343 6.96681C9.11334 8.15951 8.15565 9.1169 6.96255 9.66681L6.21231 10.0001C3.5793 11.1868 2.32893 14.2203 3.36139 16.9168L3.64481 17.6835C4.12864 18.927 4.12864 20.3066 3.64481 21.5501L3.36139 22.3168C2.32893 25.0133 3.5793 28.0468 6.21231 29.2335L6.96255 29.5668C8.17305 30.1414 9.13306 31.1366 9.66343 32.3668L9.99687 33.1168C11.1776 35.7554 14.2183 37.0079 16.9158 35.9668L17.6827 35.6835C18.9298 35.217 20.3035 35.217 21.5506 35.6835L22.3175 35.9668C25.015 37.0079 28.0557 35.7554 29.2364 33.1168L29.5699 32.3668C30.1446 31.1567 31.1402 30.197 32.3708 29.6668L33.121 29.3335C35.754 28.1468 37.0044 25.1133 35.9719 22.4168L35.6885 21.6501C35.2047 20.4066 35.2047 19.027 35.6885 17.7835L35.9719 17.0168C37.0044 14.3203 35.754 11.2868 33.121 10.1001L32.3708 9.66681C31.1777 9.1169 30.22 8.15951 29.6699 6.96681L29.3365 6.21681C28.456 4.24695 26.493 2.98452 24.3348 3.00014H24.3182ZM24.318 6.33348C25.1454 6.32768 25.8978 6.81169 26.2353 7.56681L26.5854 8.33348C27.4717 10.3036 29.0494 11.8808 31.0202 12.7668L31.7538 13.0835C32.7855 13.5607 33.2676 14.7582 32.8541 15.8168L32.5874 16.5335C31.8119 18.5332 31.8119 20.7504 32.5874 22.7501L32.8708 23.5668C33.2806 24.6024 32.8032 25.777 31.7871 26.2335L31.0202 26.5835C29.0494 27.4695 27.4717 29.0467 26.5854 31.0168L26.2687 31.7501C25.9269 32.5115 25.1695 33.001 24.3347 33.0001C24.0614 32.9957 23.7908 32.945 23.5344 32.8502L22.8175 32.5835C21.8141 32.1896 20.7445 31.9915 19.6665 32.0002C18.6118 31.9923 17.5652 32.1846 16.5822 32.5668L15.7653 32.8502C15.5275 32.9492 15.2725 33.0001 15.015 33.0001C14.1877 33.0059 13.4353 32.5219 13.0977 31.7668L12.7476 31.0001C11.8613 29.03 10.2836 27.4528 8.31284 26.5668L7.57927 26.3335C6.54748 25.8563 6.0654 24.6588 6.47892 23.6001L6.74567 22.8835C7.52109 20.8838 7.52109 18.6665 6.74567 16.6668L6.46224 15.8501C6.05244 14.8146 6.52979 13.6399 7.54593 13.1835L8.31284 12.8335C10.3047 11.9305 11.8907 10.3212 12.7643 8.31681L13.0811 7.58348C13.4229 6.82213 14.1802 6.3326 15.015 6.33348C15.2883 6.33789 15.5589 6.38861 15.8153 6.48348L16.5322 6.75015C17.5304 7.14198 18.5941 7.33996 19.6665 7.33348C20.7212 7.34136 21.7679 7.14907 22.7508 6.76681L23.5678 6.48348C23.8055 6.38446 24.0605 6.33348 24.318 6.33348ZM25.4518 13.5835C25.4484 13.5835 25.4451 13.5835 25.4417 13.5835H25.4518ZM25.4268 13.5837C25.4317 13.5836 25.4367 13.5835 25.4417 13.5835H25.4118C25.4084 13.5835 25.4051 13.5835 25.4018 13.5835H25.4118C25.4168 13.5835 25.4218 13.5836 25.4268 13.5837ZM25.4268 13.5837C25.2183 13.5887 25.0188 13.6717 24.8682 13.8168L16.9657 21.7168L14.4649 19.2335C14.3136 19.0723 14.1024 18.9809 13.8814 18.9809C13.6603 18.9809 13.4491 19.0723 13.2978 19.2335L12.4142 20.1168C12.2564 20.2733 12.1676 20.4863 12.1676 20.7085C12.1676 20.9307 12.2564 21.1437 12.4142 21.3001L16.3322 25.2501C16.4827 25.412 16.6946 25.5028 16.9157 25.5001C17.1359 25.4989 17.3464 25.4087 17.4992 25.2501L26.8689 15.8835C27.0267 15.727 27.1155 15.514 27.1155 15.2918C27.1155 15.0696 27.0267 14.8566 26.8689 14.7001L25.9853 13.8168C25.8347 13.6717 25.6353 13.5887 25.4268 13.5837Z" fill="black"/>
</svg>
