<svg width="83" height="112" viewBox="0 0 83 112" fill="none" xmlns="http://www.w3.org/2000/svg">
<path fill-rule="evenodd" clip-rule="evenodd" d="M0.679688 16.7602V0.440195C0.679688 0.280195 0.759687 0.200195 0.919688 0.200195H6.00769C8.27969 0.200195 10.1597 0.920196 11.6477 2.3602C13.1517 3.8002 13.9037 5.8802 13.9037 8.6002C13.9037 11.3202 13.1517 13.4002 11.6477 14.8402C10.1597 16.2802 8.27969 17.0002 6.00769 17.0002H0.919688C0.759687 17.0002 0.679688 16.9202 0.679688 16.7602ZM5.86369 2.9842H3.70369V14.2162H5.86369C7.35169 14.2162 8.54369 13.7442 9.43969 12.8002C10.3357 11.8562 10.7837 10.4562 10.7837 8.6002C10.7837 6.7442 10.3357 5.3442 9.43969 4.4002C8.54369 3.4562 7.35169 2.9842 5.86369 2.9842ZM26.4077 16.7602L24.9677 12.5602H19.0157L17.5757 16.7602C17.5277 16.9202 17.4317 17.0002 17.2877 17.0002H14.6717C14.4957 17.0002 14.4077 16.9202 14.4077 16.7602C14.4077 16.7122 14.4157 16.6642 14.4317 16.6162L20.3357 0.440195C20.3837 0.280195 20.4637 0.200195 20.5757 0.200195H23.4077C23.5197 0.200195 23.5997 0.280195 23.6477 0.440195L29.5517 16.6162C29.5677 16.6642 29.5757 16.7122 29.5757 16.7602C29.5757 16.9202 29.4877 17.0002 29.3117 17.0002H26.6957C26.5517 17.0002 26.4557 16.9202 26.4077 16.7602ZM21.9917 3.9202L19.9757 9.7762H24.0077L21.9917 3.9202ZM41.9882 17.0002H44.5562C44.7162 17.0002 44.7962 16.9202 44.7962 16.7602V0.440195C44.7962 0.280195 44.7162 0.200195 44.5562 0.200195H41.9642C41.8042 0.200195 41.7242 0.280195 41.7242 0.440195V11.7682L34.6442 0.392196C34.5642 0.264195 34.4362 0.200195 34.2602 0.200195H31.6922C31.5322 0.200195 31.4522 0.280195 31.4522 0.440195V16.7602C31.4522 16.9202 31.5322 17.0002 31.6922 17.0002H34.2842C34.4442 17.0002 34.5242 16.9202 34.5242 16.7602V5.4322L41.6042 16.8082C41.6842 16.9362 41.8122 17.0002 41.9882 17.0002ZM82.3061 109.892C83.0396 109.892 82.9349 108.491 82.8301 107.891C82.9349 107.891 82.9349 107.791 82.9349 107.791C83.1444 106.99 82.8301 105.69 82.2013 105.089C76.9617 100.386 73.2941 94.4819 71.6174 87.9774C71.6058 87.9497 71.5932 87.9192 71.5797 87.8864C71.3488 87.3267 70.8374 86.0872 70.0455 86.2762C69.2072 86.5764 69.4168 87.8773 69.5216 88.4777C70.7791 93.181 72.8749 97.6841 75.7043 101.687C69.8359 99.8856 64.0724 98.0843 58.4137 95.8828C47.9346 91.78 37.7698 85.976 30.644 77.2701C27.0811 72.867 24.7757 67.9637 23.5182 62.56C22.1559 56.756 22.0511 50.6518 22.4703 44.7478C22.5751 43.8472 22.1559 42.6463 21.4224 42.146C20.6889 41.6456 20.2697 42.5463 20.2697 43.1467C19.6409 50.3516 20.0601 57.7567 22.0511 64.8616C23.7278 70.7656 26.5572 76.2694 30.644 81.0727C34.3117 85.3756 38.8177 89.0782 43.6381 92.1803C54.1173 98.8849 66.273 102.587 78.2192 106.19C70.5695 106.49 62.9197 107.091 55.27 108.091C54.3268 108.191 54.6412 109.792 54.746 110.293C54.9556 110.993 55.4795 112.094 56.3179 111.994C64.9108 110.893 73.6084 110.193 82.3061 109.892Z" fill="black"/>
</svg>
