<svg width="240" height="240" viewBox="0 0 240 240" fill="none" xmlns="http://www.w3.org/2000/svg">
<circle cx="59" cy="120" r="8.5" stroke="white" stroke-width="3"/>
<circle cx="182" cy="120" r="8.5" stroke="white" stroke-width="3"/>
<path fill-rule="evenodd" clip-rule="evenodd" d="M117.498 58.0317C117.55 58.8584 116.923 59.5713 116.096 59.624C87.8264 61.4241 64.8336 82.6417 60.3091 110.085C59.8808 110.029 59.4439 110 59.0003 110C58.4066 110 57.825 110.052 57.2598 110.151C61.7871 81.0763 86.04 58.5317 115.905 56.63C116.732 56.5774 117.445 57.2049 117.498 58.0317ZM57.2598 129.849C61.657 158.088 84.6625 180.167 113.345 183.155C114.169 183.241 114.907 182.643 114.993 181.819C115.078 180.995 114.48 180.257 113.656 180.171C86.5116 177.344 64.7027 156.564 60.3091 129.915C59.8808 129.971 59.4439 130 59.0003 130C58.4066 130 57.825 129.948 57.2598 129.849ZM122.504 58.0317C122.556 57.2049 123.269 56.5774 124.096 56.63C153.918 58.529 178.144 81.0115 182.722 110.026C182.484 110.009 182.243 110 182.001 110C181.217 110 180.453 110.09 179.721 110.261C175.266 82.7326 152.235 61.4279 123.905 59.624C123.079 59.5713 122.451 58.8584 122.504 58.0317ZM182.001 130C182.243 130 182.484 129.991 182.722 129.974C178.276 158.154 155.296 180.172 126.656 183.155C125.832 183.241 125.094 182.643 125.009 181.819C124.923 180.995 125.521 180.257 126.345 180.171C153.549 177.337 175.395 156.473 179.721 129.739C180.453 129.91 181.217 130 182.001 130Z" fill="white"/>
<path d="M108 52.261L116.146 57.8855L110.522 66.032" stroke="white" stroke-width="3" stroke-linecap="round" stroke-linejoin="round"/>
<path d="M132.242 187.565L123.729 182.513L128.782 174" stroke="white" stroke-width="3" stroke-linecap="round" stroke-linejoin="round"/>
<path d="M99 83.5H122.911C128.71 83.5 133.411 88.201 133.411 94V102.421C133.411 108.22 128.71 112.921 122.911 112.921H104.831C101.581 112.921 98.441 114.093 95.9861 116.222L89.3276 121.996C89.0038 122.277 88.5 122.047 88.5 121.618V100.912V94C88.5 88.201 93.201 83.5 99 83.5Z" stroke="white" stroke-width="3"/>
<path d="M100.199 94.1001H121.099" stroke="white" stroke-width="3" stroke-linecap="round"/>
<path d="M100.199 102.9H121.099" stroke="white" stroke-width="3" stroke-linecap="round"/>
<path d="M140.91 123.5H116.999C111.2 123.5 106.499 128.201 106.499 134V142.421C106.499 148.22 111.2 152.921 116.999 152.921H135.079C138.329 152.921 141.469 154.093 143.924 156.222L150.583 161.996C150.906 162.277 151.41 162.047 151.41 161.618V140.912V134C151.41 128.201 146.709 123.5 140.91 123.5Z" stroke="white" stroke-width="3"/>
<path d="M123.701 139.286L126.39 141.8L135.801 133" stroke="white" stroke-width="3" stroke-linecap="round"/>
</svg>
